# xmcd
#
# Track frame offsets:
#	150
#	15239
#	28856
#	42006
#	53086
#	67403
#	79098
#	93427
#	108344
#	122730
#	136289
#	151338
#	163876
#	176179
#	188112
#	201148
#	214106
#	228204
#	243370
#	257867
#
# Disc length: 3640 seconds
#
# Revision: 0
# Processed by: cddbd v1.5.2PL0 Copyright (c) Steve Scherf et al.
# Submitted via: audiograbber 1.83.01
#
DISCID=140e3614
DTITLE=—борник - 101 Songs That Won World War II CD2 -  We'll Meet Again
DYEAR=1900
DGENRE=
TTITLE0=Vera Lynn - We'll Meet Again
TTITLE1=George Formby - Leaning on a Lamp Post
TTITLE2=Leslie "Hutch" Hutchinson - Let There Be Love
TTITLE3=Gracie Fields - Sing As We Go
TTITLE4=Joe Loss - 'Till the Lights of London Shine Again
TTITLE5=Leslie "Hutch" Hutchinson - I've Got My Eyes on You
TTITLE6=Woody Herman - At the Woodchoppers Ball
TTITLE7=Al Bowlly - Goodnight Sweetheart
TTITLE8=Harry Roy - They Can't Black Out The Moon
TTITLE9=Dinah Shore - Counting the Days
TTITLE10=Glenn Miller - American Patrol
TTITLE11=Dick Haymes - You'll Never Know
TTITLE12=Flanigan and Allen - Down Forget-Me-Not Lane
TTITLE13=The Mills Brothers - Paper Doll
TTITLE14=The Andrews Sisters - Beat Me, Daddy, Eight To The Bar
TTITLE15=Benny Goodman - Frenesi
TTITLE16=Bing Crosby and The Andrews Sisters - Don't Fence Me In
TTITLE17=Ambrose - Ma, I Miss Your Apple Pie
TTITLE18=Doris Day - Sentimental Journey
TTITLE19=Glenn Miller - Take The 'A' Train
EXTD=
EXTT0=
EXTT1=
EXTT2=
EXTT3=
EXTT4=
EXTT5=
EXTT6=
EXTT7=
EXTT8=
EXTT9=
EXTT10=
EXTT11=
EXTT12=
EXTT13=
EXTT14=
EXTT15=
EXTT16=
EXTT17=
EXTT18=
EXTT19=
PLAYORDER=
